<?xml version="1.0"?>
<svg xmlns="http://www.w3.org/2000/svg" xmlns:xlink="http://www.w3.org/1999/xlink" xmlns:svgjs="http://svgjs.com/svgjs" version="1.1" width="512" height="512" x="0" y="0" viewBox="0 0 278.449 278.449" style="enable-background:new 0 0 512 512" xml:space="preserve" class=""><g>
<g xmlns="http://www.w3.org/2000/svg">
	<path d="M23.776,122.15c-3.099-1.107-4.405-3.549,0.664-8.752l85.538-86.016c12.985-13.066,25.719-27.24,29.913-27.382   c4.212-0.129,16.678,14.493,29.667,27.571l84.902,85.496c0,0,11.606,9.683-11.229,9.683c0,0-11.89,0-26.535,0   s-26.505,14.937-26.481,33.369l0.114,101.541c-1.062,20.83-22.481,20.788-22.481,20.788l-56.376-0.023   c-21.182-0.696-21.545-22.218-21.545-22.218l0.1-100.088c0.018-18.438-12.328-33.369-27.577-33.369   C47.191,122.757,29.567,124.24,23.776,122.15z" fill="#ffffff" data-original="#000000" style="" class=""/>
</g>
<g xmlns="http://www.w3.org/2000/svg">
</g>
<g xmlns="http://www.w3.org/2000/svg">
</g>
<g xmlns="http://www.w3.org/2000/svg">
</g>
<g xmlns="http://www.w3.org/2000/svg">
</g>
<g xmlns="http://www.w3.org/2000/svg">
</g>
<g xmlns="http://www.w3.org/2000/svg">
</g>
<g xmlns="http://www.w3.org/2000/svg">
</g>
<g xmlns="http://www.w3.org/2000/svg">
</g>
<g xmlns="http://www.w3.org/2000/svg">
</g>
<g xmlns="http://www.w3.org/2000/svg">
</g>
<g xmlns="http://www.w3.org/2000/svg">
</g>
<g xmlns="http://www.w3.org/2000/svg">
</g>
<g xmlns="http://www.w3.org/2000/svg">
</g>
<g xmlns="http://www.w3.org/2000/svg">
</g>
<g xmlns="http://www.w3.org/2000/svg">
</g>
</g></svg>
